PathFileType	4	(X/Y/Z)	C:\Users\dbl\Desktop\LZH\BX\Trimmed_bx_y_10_1801.trc
DataRate	CameraRate	NumFrames	NumMarkers	Units	OrigDataRate	OrigDataStartFrame	OrigNumFrames
50.00	50.00	       4	43	mm	50.00	268	       357
Frame#	Time	Top.Head			R.Acromium			L.Acromium			Sternum			R.ASIS			L.ASIS			V.Sacral			R.Thigh.Upper			R.Thigh.Front			R.Thigh.Rear			R.Knee.Lat			R.Knee.Med			R.Shank.Upper			R.Shank.Front			R.Shank.Rear			R.Ankle.Lat			R.Midfoot.Lat			R.Toe.Lat			R.Toe.Tip			R.Toe.Med			R.Ankle.Med			R.Midfoot.Sup			R.Heel			L.Thigh.Upper			L.Thigh.Front			L.Thigh.Rear			L.Knee.Lat			L.Knee.Med			L.Shank.Upper			L.Shank.Front			L.Shank.Rear			L.Ankle.Lat			L.Midfoot.Lat			L.Toe.Lat			L.Toe.Tip			L.Toe.Med			L.Ankle.Med			L.Midfoot.Sup			L.Heel			origin1 front left			origin2 front right			origin 3 back right			origin 4 back leftt			
		X1	Y1	Z1	X2	Y2	Z2	X3	Y3	Z3	X4	Y4	Z4	X5	Y5	Z5	X6	Y6	Z6	X7	Y7	Z7	X8	Y8	Z8	X9	Y9	Z9	X10	Y10	Z10	X11	Y11	Z11	X12	Y12	Z12	X13	Y13	Z13	X14	Y14	Z14	X15	Y15	Z15	X16	Y16	Z16	X17	Y17	Z17	X18	Y18	Z18	X19	Y19	Z19	X20	Y20	Z20	X21	Y21	Z21	X22	Y22	Z22	X23	Y23	Z23	X24	Y24	Z24	X25	Y25	Z25	X26	Y26	Z26	X27	Y27	Z27	X28	Y28	Z28	X29	Y29	Z29	X30	Y30	Z30	X31	Y31	Z31	X32	Y32	Z32	X33	Y33	Z33	X34	Y34	Z34	X35	Y35	Z35	X36	Y36	Z36	X37	Y37	Z37	X38	Y38	Z38	X39	Y39	Z39	X40	Y40	Z40	X41	Y41	Z41	X42	Y42	Z42	X43	Y43	Z43	

268	5.340	-573.22906	242.70320	1781.69214	-559.92212	48.87612	1475.72107	-532.74969	433.55090	1478.35400	-515.18591	245.31740	1326.22058	-620.47858	146.42168	1047.67480	-610.61572	379.23889	1054.70325	-811.27948	251.99802	1050.50928	-640.29999	80.33632	896.05255	-577.34229	134.74213	862.75891	-639.47266	73.26719	744.76855	-596.08765	96.68893	600.83832	-565.29486	205.70322	567.06909	-625.66681	101.32102	533.29034	-532.73199	143.49623	553.09210	-673.56488	111.24309	473.97141	-681.11432	147.29057	214.96849	-617.12103	78.27315	166.60422	-572.81232	49.95245	158.56497	-492.02176	89.75749	158.86137	-530.38403	142.63406	164.33588	-623.00751	218.36604	215.79286	-588.69501	188.21251	167.42003	-711.12183	219.52147	171.49500	-611.59955	433.56830	881.80688	-556.16290	369.58075	856.06793	-605.99414	441.20819	748.51355	-584.20648	417.90897	619.95361	-540.14172	315.79883	578.86487	-583.50861	414.72205	558.02551	-531.69525	371.69949	531.93353	-642.91290	417.90182	510.83820	-672.48718	412.85495	213.61018	-585.27667	469.12653	164.77275	-546.53003	478.16223	158.83252	-486.48117	429.81458	166.91702	-524.38177	388.01044	176.55424	-637.31848	325.14194	203.48482	-593.55786	349.81042	164.95990	-730.94080	342.05453	165.89337	-443.76996	449.08218	147.31570	-450.08630	76.19473	143.39526	-806.16956	82.64386	142.62947	-799.18311	458.27972	144.49620	
269	5.360	-581.63483	241.24939	1789.27051	-566.34149	48.38705	1482.01343	-538.47607	432.97983	1485.90796	-517.45734	244.61996	1333.44165	-619.98773	143.92149	1049.63452	-607.53998	378.13055	1058.73621	-807.39038	251.21292	1053.52148	-637.58392	79.93654	897.94928	-575.00580	134.00046	863.89874	-639.97748	74.17362	746.57428	-600.07758	98.32799	602.09485	-569.50323	207.49426	567.97821	-629.60474	103.16836	534.28815	-536.95654	145.15828	554.35492	-676.88379	112.65556	474.45779	-681.41174	147.29161	214.88626	-617.18542	78.19653	166.53429	-572.85291	49.76138	158.47806	-491.95978	89.82294	158.87431	-530.40063	142.59647	164.38188	-623.23291	218.45474	216.05206	-588.70911	188.21584	167.50060	-711.14807	219.46272	171.44046	-608.99182	432.59583	884.27460	-554.49054	368.27658	856.78870	-606.80151	440.30154	750.69995	-588.68353	416.83783	621.82965	-545.40649	314.77911	580.10736	-588.31677	413.71762	559.28918	-536.57031	370.70334	533.42871	-647.29822	417.28302	511.62708	-672.93524	412.97571	213.73865	-585.30475	469.22650	164.70078	-546.48804	478.17670	158.80161	-486.51776	429.73914	166.99748	-524.43182	388.02460	176.66441	-637.76056	325.35690	203.81633	-593.51379	349.87088	165.40372	-730.99445	342.19693	165.96297	-443.74420	449.07532	147.31990	-449.98309	76.24538	143.50644	-806.22546	82.67330	142.59830	-799.13678	458.28543	144.42485	
270	5.380	-589.86292	239.89771	1796.12415	-572.74139	47.93027	1488.23071	-544.20068	432.44345	1492.83240	-519.78821	244.06375	1340.10608	-619.62622	141.32654	1051.61462	-604.49048	377.11810	1062.52197	-803.51453	250.48190	1056.15283	-634.95593	79.71452	899.50293	-572.72833	133.31265	864.84808	-640.56323	75.09900	748.23260	-604.11713	100.07166	603.22351	-573.74725	209.32782	568.84644	-633.60095	105.03850	535.28406	-541.16504	146.95717	555.60913	-680.21106	114.09821	474.90244	-681.67407	147.28712	214.88304	-617.25299	78.14256	166.46829	-572.88171	49.61074	158.39214	-491.88950	89.90680	158.85490	-530.41064	142.57872	164.41110	-623.49451	218.57642	216.48474	-588.74139	188.22462	167.59344	-711.18402	219.41765	171.39680	-606.70459	431.77939	886.39270	-552.94128	367.36270	857.46332	-607.87628	439.41315	752.63373	-593.28210	415.70975	623.57080	-550.77588	313.66641	581.23889	-593.24951	412.69406	560.50787	-541.47327	369.60916	534.89624	-651.72534	416.58514	512.37189	-673.33185	413.05219	213.79424	-585.29968	469.27045	164.67688	-546.44385	478.13345	158.74800	-486.56430	429.63339	167.02524	-524.47192	388.02103	176.74487	-638.13770	325.36783	204.17474	-593.46808	349.84427	165.75031	-731.05170	342.28818	165.92032	-443.69638	449.01593	147.31184	-449.90750	76.29465	143.62280	-806.27539	82.70435	142.54932	-799.13251	458.24951	144.42038	
271	5.400	-597.91650	238.68097	1802.23511	-579.04590	47.51366	1494.18750	-549.84039	431.86099	1499.14600	-522.04761	243.68697	1346.25208	-619.19299	138.71381	1053.59204	-601.39209	376.15616	1066.22839	-799.65454	249.81635	1058.39014	-632.47363	79.62852	900.68219	-570.57300	132.86148	865.55359	-641.19141	76.08210	749.71503	-608.08997	101.84554	604.22784	-578.01556	211.16960	569.68524	-637.63245	106.83250	536.29175	-545.42462	148.95311	556.75281	-683.52332	115.52519	475.28909	-681.92871	147.30753	214.93909	-617.30035	78.09547	166.39951	-572.88507	49.54183	158.30450	-491.83389	89.98846	158.82796	-530.41656	142.57890	164.42497	-623.75372	218.68082	216.99635	-588.79578	188.24088	167.72958	-711.21295	219.35193	171.33534	-604.75928	431.07193	888.11469	-551.51404	366.74985	857.93518	-609.25665	438.56555	754.27991	-597.96857	414.68597	625.09741	-556.20050	312.51370	582.28778	-598.31262	411.67615	561.65247	-546.38715	368.48962	536.32678	-656.19287	415.85632	513.01776	-673.68683	413.13458	213.82401	-585.27032	469.27020	164.68103	-546.43091	478.07019	158.70129	-486.60654	429.49835	167.01880	-524.50793	388.01080	176.77281	-638.50830	325.32648	204.41412	-593.46582	349.80563	165.92662	-731.14734	342.35043	165.74702	-443.62787	448.89941	147.27994	-449.88629	76.30436	143.70743	-806.29944	82.72349	142.50751	-799.17957	458.20871	144.43585	
